HIERARCHY
ROOT hip
{
  OFFSET 0 0 0
  CHANNELS 6 Xposition Yposition Zposition Zrotation Yrotation Xrotation
  JOINT abdomen
  {
    OFFSET 0 20.6881 -0.73152
    CHANNELS 3 Zrotation Xrotation Yrotation
    JOINT chest
    {
      OFFSET 0 11.7043 -0.48768
      CHANNELS 3 Zrotation Xrotation Yrotation
      JOINT neck
      {
        OFFSET 0 22.1894 -2.19456
        CHANNELS 3 Zrotation Xrotation Yrotation
        JOINT head
        {
          OFFSET -0.24384 7.07133 1.2192
          CHANNELS 3 Zrotation Xrotation Yrotation
          JOINT leftEye
          {
            OFFSET 4.14528 8.04674 8.04672
            CHANNELS 3 Zrotation Xrotation Yrotation
            End Site
            {
              OFFSET 1 0 0
            }
          }
          JOINT rightEye
          {
            OFFSET -3.6576 8.04674 8.04672
            CHANNELS 3 Zrotation Xrotation Yrotation
            End Site
            {
              OFFSET 1 0 0
            }
          }
        }
      }
      JOINT rCollar
      {
        OFFSET -2.68224 19.2634 -4.8768
        CHANNELS 3 Zrotation Xrotation Yrotation
        JOINT rShldr
        {
          OFFSET -8.77824 -1.95073 1.46304
          CHANNELS 3 Zrotation Xrotation Yrotation
          JOINT rForeArm
          {
            OFFSET -28.1742 -1.7115 0.48768
            CHANNELS 3 Zrotation Xrotation Yrotation
            JOINT rHand
            {
              OFFSET -22.5879 0.773209 7.07136
              CHANNELS 3 Zrotation Xrotation Yrotation
              JOINT rThumb1
              {
                OFFSET -1.2192 -0.487915 3.41376
                CHANNELS 3 Zrotation Xrotation Yrotation
                JOINT rThumb2
                {
                  OFFSET -3.37035 -0.52449 3.41376
                  CHANNELS 3 Zrotation Xrotation Yrotation
                  End Site
                  {
                    OFFSET -1.78271 -1.18214 1.43049
                  }
                }
              }
              JOINT rIndex1
              {
                OFFSET -7.75947 0.938293 5.60832
                CHANNELS 3 Zrotation Xrotation Yrotation
                JOINT rIndex2
                {
                  OFFSET -2.54057 -0.884171 1.56538
                  CHANNELS 3 Zrotation Xrotation Yrotation
                  End Site
                  {
                    OFFSET -1.62519 -0.234802 1.16502
                  }
                }
              }
              JOINT rMid1
              {
                OFFSET -8.24714 1.18213 3.41376
                CHANNELS 3 Zrotation Xrotation Yrotation
                JOINT rMid2
                {
                  OFFSET -3.10165 -0.590103 1.0647
                  CHANNELS 3 Zrotation Xrotation Yrotation
                  End Site
                  {
                    OFFSET -2.48547 -0.328903 0.83742
                  }
                }
              }
              JOINT rRing1
              {
                OFFSET -8.82822 0.546677 1.51678
                CHANNELS 3 Zrotation Xrotation Yrotation
                JOINT rRing2
                {
                  OFFSET -2.60934 -0.819778 -0.0198488
                  CHANNELS 3 Zrotation Xrotation Yrotation
                  End Site
                  {
                    OFFSET -2.33842 -0.294052 0.168128
                  }
                }
              }
              JOINT rPinky1
              {
                OFFSET -8.27202 -0.0477905 -0.4584
                CHANNELS 3 Zrotation Xrotation Yrotation
                JOINT rPinky2
                {
                  OFFSET -1.82734 -0.647385 -0.700984
                  CHANNELS 3 Zrotation Xrotation Yrotation
                  End Site
                  {
                    OFFSET -1.69225 -0.51767 -0.607171
                  }
                }
              }
            }
          }
        }
      }
      JOINT lCollar
      {
        OFFSET 2.68224 19.2634 -4.8768
        CHANNELS 3 Zrotation Xrotation Yrotation
        JOINT lShldr
        {
          OFFSET 8.77824 -1.95073 1.46304
          CHANNELS 3 Zrotation Xrotation Yrotation
          JOINT lForeArm
          {
            OFFSET 28.1742 -1.7115 0.48768
            CHANNELS 3 Zrotation Xrotation Yrotation
            JOINT lHand
            {
              OFFSET 22.5879 0.773209 7.07136
              CHANNELS 3 Zrotation Xrotation Yrotation
              JOINT lThumb1
              {
                OFFSET 1.2192 -0.487915 3.41376
                CHANNELS 3 Zrotation Xrotation Yrotation
                JOINT lThumb2
                {
                  OFFSET 3.37035 -0.52449 3.41376
                  CHANNELS 3 Zrotation Xrotation Yrotation
                  End Site
                  {
                    OFFSET 1.78271 -1.18214 1.43049
                  }
                }
              }
              JOINT lIndex1
              {
                OFFSET 7.75947 0.938293 5.60832
                CHANNELS 3 Zrotation Xrotation Yrotation
                JOINT lIndex2
                {
                  OFFSET 2.54057 -0.884171 1.56538
                  CHANNELS 3 Zrotation Xrotation Yrotation
                  End Site
                  {
                    OFFSET 1.62519 -0.234802 1.16502
                  }
                }
              }
              JOINT lMid1
              {
                OFFSET 8.24714 1.18213 3.41376
                CHANNELS 3 Zrotation Xrotation Yrotation
                JOINT lMid2
                {
                  OFFSET 3.10165 -0.590103 1.0647
                  CHANNELS 3 Zrotation Xrotation Yrotation
                  End Site
                  {
                    OFFSET 2.48547 -0.328903 0.83742
                  }
                }
              }
              JOINT lRing1
              {
                OFFSET 8.82822 0.546677 1.51678
                CHANNELS 3 Zrotation Xrotation Yrotation
                JOINT lRing2
                {
                  OFFSET 2.60934 -0.819778 -0.0198488
                  CHANNELS 3 Zrotation Xrotation Yrotation
                  End Site
                  {
                    OFFSET 2.33842 -0.294052 0.168128
                  }
                }
              }
              JOINT lPinky1
              {
                OFFSET 8.27202 -0.0477905 -0.4584
                CHANNELS 3 Zrotation Xrotation Yrotation
                JOINT lPinky2
                {
                  OFFSET 1.82734 -0.647385 -0.700984
                  CHANNELS 3 Zrotation Xrotation Yrotation
                  End Site
                  {
                    OFFSET 1.69225 -0.51767 -0.607171
                  }
                }
              }
            }
          }
        }
      }
    }
  }
  JOINT rButtock
  {
    OFFSET -8.77824 4.35084 1.2192
    CHANNELS 3 Zrotation Xrotation Yrotation
    JOINT rThigh
    {
      OFFSET 0 -1.70687 -2.19456
      CHANNELS 3 Zrotation Xrotation Yrotation
      JOINT rShin
      {
        OFFSET 0 -36.8199 0.73152
        CHANNELS 3 Zrotation Xrotation Yrotation
        JOINT rFoot
        {
          OFFSET 0.73152 -45.1104 -5.12064
          CHANNELS 3 Zrotation Xrotation Yrotation
          End Site
          {
            OFFSET -1.1221 -3.69964 12.103
          }
        }
      }
    }
  }
  JOINT lButtock
  {
    OFFSET 8.77824 4.35084 1.2192
    CHANNELS 3 Zrotation Xrotation Yrotation
    JOINT lThigh
    {
      OFFSET 0 -1.70687 -2.19456
      CHANNELS 3 Zrotation Xrotation Yrotation
      JOINT lShin
      {
        OFFSET 0 -36.8199 0.73152
        CHANNELS 3 Zrotation Xrotation Yrotation
        JOINT lFoot
        {
          OFFSET -0.73152 -45.1104 -5.12064
          CHANNELS 3 Zrotation Xrotation Yrotation
          End Site
          {
            OFFSET 1.1221 -3.69964 12.103
          }
        }
      }
    }
  }
}
MOTION
Frames:	4
Frame Time:	0.00833333
77.2743 83.1061 -24.8461 177.266 -15.7394 -166.754 -1.56055 -5.21494 -9.35625 2.26133 3.59368 -2.8048 -7.14554 6.45237 -4.62425 6.51749 -28.9051 -6.67178 -0.0 0.0 0.0 -0.0 0.0 0.0 1.64078e-13 -4.96093e-14 -3.5666e-13 28.7602 -30.1804 89.1547 -26.0525 -23.5773 56.9768 -0.0347875 5.14633 0.725301 2.21845e-09 4.77808e-10 -1.59421e-10 3.83068e-09 8.23363e-10 -2.78661e-10 2.21846e-09 4.77809e-10 -1.5942e-10 7.73091 5.47488 0.417314 2.21846e-09 4.77805e-10 -1.59404e-10 2.90554 0.965183 0.102902 2.21845e-09 4.77804e-10 -1.59418e-10 10.2786 0.731801 0.0259123 2.21844e-09 4.77809e-10 -1.59414e-10 2.22167 -0.733487 -0.20892 1.63968e-13 -4.96098e-14 -3.569e-13 -26.9961 -27.4499 -100.963 13.8782 -6.85651 -25.3096 0.645336 22.1841 -3.28579 -1.34537e-10 -7.10094e-09 3.74875e-09 -1.67164e-10 -1.23143e-08 6.47753e-09 -1.34537e-10 -7.10094e-09 3.74876e-09 -7.73091 5.47488 -0.417314 -1.34534e-10 -7.10093e-09 3.74876e-09 -2.90554 0.965183 -0.102902 -1.34542e-10 -7.10094e-09 3.74876e-09 -10.2786 0.731801 -0.0259123 -1.3453e-10 -7.10094e-09 3.74875e-09 -2.22167 -0.733487 0.20892 -2.03217e-16 0.0 -3.88251e-19 -0.583764 -17.908 -8.58647 -0.0882776 19.81 0.511697 -4.25519 -14.0801 -11.5607 2.03217e-16 0.0 3.88251e-19 6.80375 4.06782 -1.89371 0.0175487 17.9004 -0.210118 -5.71674 18.8368 20.7339
77.3159 83.1054 -24.8386 177.302 -15.7328 -166.635 -1.48003 -5.05372 -9.31532 2.21765 3.58004 -2.79224 -7.09365 6.64886 -4.66957 6.2912 -29.1015 -6.84548 -0.0 0.0 0.0 -0.0 0.0 0.0 1.72221e-13 -5.72498e-14 -3.30976e-13 29.2866 -30.312 89.3319 -26.431 -24.5948 58.6332 -0.0222609 4.2554 0.599171 1.77355e-09 2.6508e-10 -1.57348e-10 3.06225e-09 4.57446e-10 -2.71813e-10 1.77357e-09 2.65081e-10 -1.57345e-10 7.73091 5.47488 0.417314 1.77356e-09 2.65074e-10 -1.57329e-10 2.90554 0.965183 0.102902 1.77355e-09 2.65074e-10 -1.57347e-10 10.2786 0.731801 0.0259123 1.77354e-09 2.65078e-10 -1.57342e-10 2.22167 -0.733487 -0.20892 1.72085e-13 -5.72511e-14 -3.31275e-13 -26.9609 -27.6497 -100.978 14.0031 -6.95702 -25.5604 0.63062 21.9628 -3.24905 -2.64365e-10 -6.12367e-09 3.36141e-09 -3.9908e-10 -1.06264e-08 5.81153e-09 -2.64365e-10 -6.12367e-09 3.36142e-09 -7.73091 5.47488 -0.417314 -2.64362e-10 -6.12366e-09 3.36141e-09 -2.90554 0.965183 -0.102902 -2.64369e-10 -6.12367e-09 3.36141e-09 -10.2786 0.731801 -0.0259123 -2.64357e-10 -6.12367e-09 3.3614e-09 -2.22167 -0.733487 0.20892 -2.03217e-16 0.0 -3.88251e-19 -0.550208 -18.0002 -8.56836 -0.0894253 19.7975 0.511547 -4.26163 -14.0459 -11.5973 2.03217e-16 0.0 3.88251e-19 6.83347 4.01133 -1.86319 0.0172444 17.8448 -0.211101 -5.7171 18.7686 20.8012
77.3398 83.1045 -24.8187 177.235 -15.6703 -166.458 -1.4777 -4.92958 -9.24121 2.15751 3.57476 -2.76797 -7.16617 6.74742 -4.7167 6.2327 -29.1437 -6.95055 -0.0 0.0 0.0 -0.0 0.0 0.0 1.39193e-13 -7.0692e-15 -2.35863e-13 29.8669 -30.4168 89.5841 -26.7778 -25.6155 60.2619 -0.00919371 3.08978 0.434476 1.40008e-09 1.36316e-10 -4.18627e-10 2.41798e-09 2.35825e-10 -7.22712e-10 1.40009e-09 1.36317e-10 -4.18625e-10 7.73091 5.47488 0.417314 1.40009e-09 1.36311e-10 -4.18611e-10 2.90554 0.965183 0.102902 1.40009e-09 1.36311e-10 -4.18626e-10 10.2786 0.731801 0.0259123 1.40007e-09 1.36315e-10 -4.18621e-10 2.22167 -0.733487 -0.20892 1.3907e-13 -7.07021e-15 -2.36192e-13 -26.8275 -27.8693 -100.966 14.1372 -7.06599 -25.8301 0.613908 21.6861 -3.20388 -1.81426e-10 -4.57017e-09 2.58778e-09 -2.68952e-10 -7.93259e-09 4.47419e-09 -1.81427e-10 -4.57017e-09 2.58779e-09 -7.73091 5.47488 -0.417314 -1.81424e-10 -4.57016e-09 2.58778e-09 -2.90554 0.965183 -0.102902 -1.81431e-10 -4.57017e-09 2.58778e-09 -10.2786 0.731801 -0.0259123 -1.8142e-10 -4.57017e-09 2.58777e-09 -2.22167 -0.733487 0.20892 -2.03217e-16 0.0 -3.88251e-19 -0.565176 -18.1607 -8.48699 -0.0899826 19.8276 0.511678 -4.29647 -13.9378 -11.7593 2.03217e-16 0.0 3.88251e-19 6.79104 3.9398 -1.84679 0.0171553 17.7476 -0.210714 -5.73418 18.7614 20.8512
77.3627 83.1061 -24.8045 177.191 -15.6337 -166.325 -1.52251 -4.82558 -9.14272 2.08594 3.57468 -2.73535 -7.3084 6.7875 -4.76196 6.26589 -29.1047 -7.01208 -0.0 0.0 0.0 -0.0 0.0 0.0 7.70685e-14 8.1402e-14 -8.69807e-14 30.4975 -30.496 89.9083 -27.0913 -26.6451 61.893 -0.00107781 1.68852 0.23704 9.79331e-10 1.80594e-11 -8.60846e-10 1.69248e-09 3.20467e-11 -1.48761e-09 9.79341e-10 1.80609e-11 -8.60846e-10 7.73091 5.47488 0.417314 9.79336e-10 1.80577e-11 -8.60837e-10 2.90554 0.965183 0.102902 9.79339e-10 1.8058e-11 -8.60846e-10 10.2786 0.731801 0.0259123 9.79325e-10 1.80605e-11 -8.60839e-10 2.22167 -0.733487 -0.20892 7.69823e-14 8.14021e-14 -8.73286e-14 -26.689 -28.0924 -100.965 14.2751 -7.17912 -26.1082 0.599208 21.4412 -3.16401 3.09335e-11 -2.35742e-09 1.42886e-09 7.84492e-11 -4.09176e-09 2.46893e-09 3.09325e-11 -2.35741e-09 1.42886e-09 -7.73091 5.47488 -0.417314 3.09346e-11 -2.35741e-09 1.42886e-09 -2.90554 0.965183 -0.102902 3.09271e-11 -2.35742e-09 1.42886e-09 -10.2786 0.731801 -0.0259123 3.09384e-11 -2.35742e-09 1.42885e-09 -2.22167 -0.733487 0.20892 -2.03217e-16 0.0 -3.88251e-19 -0.60544 -18.3654 -8.36108 -0.0902594 19.8826 0.511962 -4.34925 -13.7779 -12.0062 2.03217e-16 0.0 3.88251e-19 6.70428 3.8603 -1.84063 0.017196 17.6249 -0.209565 -5.76119 18.7831 20.899
